<?xml version="1.0" standalone="no"?>
<!DOCTYPE svg PUBLIC "-//W3C//DTD SVG 20010904//EN"
 "http://www.w3.org/TR/2001/REC-SVG-20010904/DTD/svg10.dtd">
<svg version="1.0" xmlns="http://www.w3.org/2000/svg"
 width="350.000000pt" height="350.000000pt" viewBox="0 0 350.000000 350.000000"
 preserveAspectRatio="xMidYMid meet">
<metadata>
Created by potrace 1.14, written by Peter Selinger 2001-2017
</metadata>
<g transform="translate(0.000000,350.000000) scale(0.100000,-0.100000)"
fill="#000000" stroke="none">
<path d="M1597 3281 c-26 -17 -61 -31 -78 -31 -70 0 -191 -96 -235 -186 -15
-31 -32 -57 -38 -59 -48 -13 -108 -39 -127 -56 -24 -21 -29 -58 -15 -114 l7
-29 19 42 c15 34 29 47 65 63 25 11 51 18 58 16 7 -3 4 -8 -8 -12 -54 -21 -95
-68 -141 -160 l-46 -93 7 -76 c4 -50 10 -74 17 -70 18 11 -1 -49 -20 -64 -9
-6 -24 -10 -34 -7 -10 3 -27 8 -39 11 -19 5 -20 4 -9 -16 6 -11 25 -30 43 -40
33 -20 33 -20 -33 -39 -33 -10 -32 -11 18 -7 32 2 48 0 40 -5 -7 -5 -41 -9
-75 -9 -35 0 -63 -3 -63 -8 0 -10 36 -32 90 -54 31 -13 37 -18 17 -15 -15 2
-29 1 -32 -2 -9 -16 36 -90 78 -127 46 -40 46 -41 46 -106 0 -36 7 -93 16
-127 9 -34 13 -67 9 -73 -4 -6 -3 -8 4 -5 6 5 13 -9 17 -35 10 -63 39 -123 88
-181 25 -30 44 -65 46 -82 11 -109 48 -196 114 -267 19 -20 32 -40 28 -43 -3
-4 -1 -5 4 -4 6 2 30 -10 54 -26 l43 -29 -36 -33 c-20 -19 -42 -31 -48 -27 -6
4 -8 3 -4 -4 7 -12 -9 -25 -38 -29 -10 -2 -32 -13 -49 -26 -18 -12 -49 -30
-69 -39 -21 -9 -58 -31 -83 -48 -25 -17 -50 -28 -57 -24 -7 5 -8 3 -3 -6 6
-10 4 -12 -11 -6 -10 4 -15 4 -11 0 10 -10 -55 -55 -71 -49 -7 2 -11 1 -8 -4
8 -12 -183 -123 -197 -114 -5 3 -7 2 -4 -4 3 -5 -13 -26 -37 -45 -61 -52 -133
-161 -155 -238 -11 -40 -62 -141 -129 -260 l-111 -195 1276 -3 c702 -1 1278 0
1280 2 2 2 -39 95 -91 207 -63 134 -94 210 -90 224 3 13 2 16 -4 7 -10 -14
-22 12 -66 139 -22 61 -36 85 -79 126 -88 85 -116 101 -431 247 -60 27 -77 40
-72 52 3 9 6 24 6 35 0 10 6 19 13 19 6 0 35 12 63 28 149 79 259 238 304 437
8 33 22 66 32 73 36 26 41 46 81 343 7 47 19 96 28 110 9 13 19 34 23 46 4 13
18 26 30 29 l23 5 -28 29 c-35 34 -39 70 -8 70 11 0 17 5 14 10 -3 6 -1 10 5
10 6 0 4 12 -6 32 -13 24 -14 36 -5 49 6 10 8 25 5 34 -5 11 -2 14 11 9 14 -6
16 -3 11 14 -6 17 -3 19 14 15 24 -6 26 13 5 72 -8 22 -15 41 -15 43 0 2 12
-6 26 -17 15 -12 30 -21 35 -21 10 0 -18 98 -38 129 -8 13 -10 20 -4 17 33
-21 -17 91 -64 143 -24 26 -49 43 -71 47 -19 3 -32 10 -29 14 10 16 100 -1
137 -26 62 -40 63 -32 8 54 -46 70 -123 137 -172 148 l-33 7 33 8 c71 15 135
-19 159 -84 l11 -32 1 48 c1 57 -23 98 -72 124 -26 13 -51 15 -138 10 l-107
-5 -38 35 c-81 73 -185 105 -388 119 -92 5 -120 11 -175 37 -41 19 -87 32
-121 35 -48 3 -61 -1 -103 -27z m375 -236 c40 -9 109 -32 153 -51 79 -35 130
-50 120 -34 -10 16 28 20 51 5 35 -23 77 -82 68 -97 -4 -7 -4 -10 1 -6 5 5 15
-1 23 -13 28 -41 43 -135 49 -321 l6 -188 -47 0 c-46 0 -224 -53 -301 -89 -29
-14 -44 -17 -58 -9 -28 15 -32 3 -8 -30 15 -22 19 -38 15 -61 -6 -30 -8 -31
-58 -31 -39 0 -54 4 -63 18 -9 16 -5 26 30 67 l41 48 -31 -6 c-28 -5 -35 -2
-53 23 -36 50 -88 62 -251 58 -118 -2 -149 -6 -170 -21 -26 -17 -60 -81 -74
-139 l-7 -27 69 37 c63 34 75 37 170 40 92 4 105 2 129 -17 l27 -21 -145 0
c-157 0 -198 -8 -223 -46 -18 -29 -50 -31 -100 -7 -40 19 -41 26 -24 133 10
60 9 77 -6 126 -20 63 -16 112 17 234 43 159 117 279 198 320 20 10 65 26 101
34 35 9 82 25 104 36 38 18 135 48 162 49 6 1 45 -6 85 -14z m452 -828 c16
-12 13 -53 -4 -42 -4 2 -55 5 -114 6 -95 2 -105 4 -92 17 28 29 178 42 210 19z
m-882 -74 c-12 -5 -62 -76 -62 -89 0 -3 15 4 34 15 36 22 112 29 118 10 6 -19
80 -13 95 7 22 30 38 3 20 -33 -26 -50 -41 -56 -109 -49 -48 5 -59 3 -50 -6 6
-6 35 -13 64 -15 41 -3 63 1 98 19 54 28 93 82 88 120 -4 25 -2 27 21 21 14
-3 32 -10 39 -16 14 -11 16 -37 3 -37 -5 0 -14 -14 -20 -32 -9 -25 -8 -35 4
-48 13 -14 12 -19 -1 -45 -8 -17 -23 -38 -31 -47 -9 -10 -12 -18 -6 -18 30 0
83 92 83 144 0 42 23 59 78 54 36 -3 36 -3 49 -68 14 -69 55 -133 89 -138 17
-2 19 4 18 65 0 38 -6 78 -12 90 -17 31 -16 33 18 33 16 0 35 6 42 14 11 11
14 11 23 0 7 -9 36 -14 88 -15 57 -1 77 -5 77 -15 0 -8 -4 -14 -10 -14 -5 0
-10 -6 -10 -14 0 -22 -65 -39 -127 -34 -55 5 -55 5 -32 -13 13 -10 36 -21 50
-24 52 -12 167 28 217 75 l22 21 0 -56 c0 -60 -21 -104 -49 -106 -12 0 -11 -2
4 -8 11 -5 25 -5 31 0 16 13 16 -104 -1 -239 -11 -86 -22 -131 -45 -179 -16
-35 -34 -62 -40 -58 -5 3 -8 0 -5 -7 3 -7 -11 -23 -30 -36 -22 -14 -35 -30
-35 -43 0 -32 -30 -128 -42 -135 -8 -5 -9 -1 -2 12 16 35 1 270 -17 259 -15
-10 -49 -117 -64 -202 -15 -83 -28 -109 -49 -96 -5 3 -6 1 -2 -5 8 -13 -15
-40 -57 -67 -58 -37 -294 -29 -328 11 -6 7 -15 12 -19 9 -5 -3 -36 25 -70 62
-55 61 -67 57 -19 -6 10 -13 16 -28 12 -34 -4 -6 -1 -7 7 -2 10 6 12 4 7 -8
-3 -9 -1 -19 5 -23 7 -4 8 -3 4 4 -4 7 -3 12 3 12 6 0 15 -8 20 -18 6 -11 32
-27 58 -37 26 -10 59 -28 73 -41 28 -26 106 -63 132 -64 21 0 32 -33 19 -57
-21 -40 -49 -56 -87 -50 -21 4 -41 12 -45 19 -4 7 -12 9 -16 4 -12 -11 32 -44
78 -57 29 -9 39 -17 39 -33 0 -12 3 -51 7 -88 l6 -68 -57 0 c-65 0 -146 26
-202 64 -56 38 -221 202 -271 270 l-44 59 28 30 c15 16 44 42 65 58 30 25 40
28 62 19 14 -5 26 -8 26 -6 0 3 -29 25 -64 50 -87 62 -167 153 -190 215 -29
82 -46 241 -53 490 l-6 233 24 -13 c13 -8 42 -18 64 -24 35 -9 40 -14 46 -45
6 -37 28 -85 35 -77 3 2 0 26 -6 52 -20 90 9 146 75 144 16 0 24 -3 17 -6z
m132 -19 c5 -14 4 -15 -9 -4 -17 14 -19 20 -6 20 5 0 12 -7 15 -16z m496 12
c0 -2 -13 -9 -30 -15 -16 -5 -30 -6 -30 -1 0 5 8 11 18 13 24 7 42 8 42 3z
m100 -6 c0 -5 -4 -10 -10 -10 -5 0 -10 5 -10 10 0 6 5 10 10 10 6 0 10 -4 10
-10z m-1118 -121 c-4 -85 15 -148 53 -173 22 -14 24 -14 39 9 22 34 20 42 -13
50 -27 6 -51 38 -51 69 0 8 14 29 30 47 17 17 29 38 26 46 -3 7 -1 13 4 13 6
0 10 -6 10 -14 0 -7 3 -29 7 -47 6 -33 6 -34 -14 -16 -11 9 -22 17 -25 17 -10
0 -5 -65 6 -72 18 -13 26 -9 26 12 0 11 4 20 9 20 7 0 22 -349 15 -358 -1 -2
-18 18 -37 44 -33 46 -54 107 -93 279 -18 77 -19 158 -2 153 9 -3 12 -27 10
-79z m1451 -81 c1 -43 -3 -71 -10 -79 -11 -10 -13 9 -12 97 1 85 3 102 10 79
6 -16 11 -60 12 -97z m-28 -193 c-3 -40 -12 -81 -19 -91 -11 -14 -11 -5 0 47
8 35 14 82 15 104 0 22 3 34 6 27 3 -8 2 -47 -2 -87z m-434 -839 c13 -61 8
-89 -16 -80 -11 5 -15 22 -15 76 0 81 13 82 31 4z m-46 -226 c-10 -11 -23 -20
-29 -20 -6 0 0 9 14 20 32 25 38 25 15 0z"/>
<path d="M2110 1885 c0 -3 6 -16 14 -28 29 -46 29 -64 -1 -72 -15 -3 -45 -22
-65 -42 -46 -45 -78 -46 -121 -5 -38 36 -68 52 -96 52 -24 0 -28 27 -10 63 10
21 9 21 -10 -2 -12 -13 -21 -31 -21 -41 0 -31 36 -64 82 -75 41 -10 43 -13 49
-53 6 -50 15 -61 24 -33 7 25 43 28 52 6 8 -23 77 -55 117 -55 20 0 36 -6 39
-14 4 -11 -10 -14 -71 -14 -42 0 -106 0 -142 0 -188 -1 -238 3 -258 21 -16 15
-24 16 -41 7 -26 -14 -20 -26 16 -33 16 -4 54 -29 86 -56 71 -62 130 -81 246
-81 94 0 134 14 199 71 18 16 42 29 52 29 11 0 20 2 20 4 0 23 -35 146 -46
163 -8 12 -16 41 -19 64 -4 27 -17 55 -37 78 -31 36 -58 57 -58 46z m-202
-393 c12 -8 22 -18 22 -23 0 -13 -47 -11 -55 1 -4 7 3 9 22 5 l28 -7 -29 16
c-16 9 -35 15 -41 12 -6 -2 -12 2 -12 9 0 15 31 9 65 -13z"/>
<path d="M2175 1470 c-49 -51 -98 -63 -227 -57 -62 3 -126 9 -143 13 -29 6
-29 5 20 -45 l49 -51 98 0 c102 0 157 14 188 48 14 15 60 105 60 117 0 13 -19
2 -45 -25z"/>
<path d="M1341 1454 c0 -11 3 -14 6 -6 3 7 2 16 -1 19 -3 4 -6 -2 -5 -13z"/>
</g>
</svg>
